<?xml version="1.0" encoding="UTF-8"?>
<svg width="24px" height="24px" viewBox="0 0 24 24" version="1.1" xmlns="http://www.w3.org/2000/svg" xmlns:xlink="http://www.w3.org/1999/xlink">
    <!-- Generator: Sketch 53 (72520) - https://sketchapp.com -->
    <title>icn / 24x24 / case</title>
    <desc>Created with Sketch.</desc>
    <g id="icn-/-24x24-/-case" stroke="none" stroke-width="1" fill="none" fill-rule="evenodd">
        <path d="M14,11 L20,11 L20,8 L4,8 L4,11 L10,11 C10,10.4477153 10.4477153,10 11,10 L13,10 C13.5522847,10 14,10.4477153 14,11 Z M14,13 C14,13.5522847 13.5522847,14 13,14 L11,14 C10.4477153,14 10,13.5522847 10,13 L4,13 L4,19 L20,19 L20,13 L14,13 Z M7,6 L7,5 C7,3.8954305 7.8954305,3 9,3 L15,3 C16.1045695,3 17,3.8954305 17,5 L17,6 L20,6 C21.1045695,6 22,6.8954305 22,8 L22,19 C22,20.1045695 21.1045695,21 20,21 L4,21 C2.8954305,21 2,20.1045695 2,19 L2,8 C2,6.8954305 2.8954305,6 4,6 L7,6 Z M9,6 L15,6 L15,5 L9,5 L9,6 Z" id="Shape" fill="#1B3855"></path>
    </g>
</svg>