<?xml version="1.0" encoding="UTF-8"?>
<svg width="24px" height="24px" viewBox="0 0 24 24" version="1.1" xmlns="http://www.w3.org/2000/svg" xmlns:xlink="http://www.w3.org/1999/xlink">
    <!-- Generator: Sketch 53 (72520) - https://sketchapp.com -->
    <title>icn / 24x24 / copy</title>
    <desc>Created with Sketch.</desc>
    <g id="icn-/-24x24-/-copy" stroke="none" stroke-width="1" fill="none" fill-rule="evenodd">
        <path d="M20,12 L17,12 C16.4477153,12 16,11.5522847 16,11 L16,7 C16,6.61254266 16.2037314,6.30920342 16.485807,6.14191939 C16.4923456,6.13812471 16.4988619,6.13431391 16.5054113,6.13058305 C16.5727577,6.0926222 16.6442994,6.06229229 16.7183926,6.04027418 C17.057781,5.94101836 17.4394383,6.02522471 17.7071068,6.29289322 L22,10.5857864 L22,10.9298127 C22.0026908,10.9719607 22.0026551,11.0140929 22,11.055955 L22,20 C22,21.1045695 21.1045695,22 20,22 L11,22 C9.8954305,22 9,21.1045695 9,20 C9,19.4477153 9.44771525,19 10,19 C10.5522847,19 11,19.4477153 11,20 L20,20 L20,12 L20,12 Z M9,4 L4,4 L4,16 L13,16 L13,8 L10,8 C9.44771525,8 9,7.55228475 9,7 L9,4 L9,4 Z M9.94404504,2 C9.98590712,1.99734489 10.0280393,1.99730916 10.0701827,2 L10.4142136,2 L15,6.58578644 L15,6.92981271 C15.0026908,6.97196074 15.0026551,7.01409288 15,7.05595496 L15,16 C15,17.1045695 14.1045695,18 13,18 L4,18 C2.8954305,18 2,17.1045695 2,16 L2,4 C2,2.8954305 2.8954305,2 4,2 L9.94404504,2 Z" id="Shape" fill="#1B3855" fill-rule="nonzero"></path>
    </g>
</svg>