<?xml version="1.0" encoding="UTF-8"?>
<svg width="24px" height="24px" viewBox="0 0 24 24" version="1.1" xmlns="http://www.w3.org/2000/svg" xmlns:xlink="http://www.w3.org/1999/xlink">
    <!-- Generator: Sketch 53 (72520) - https://sketchapp.com -->
    <title>icn / 24x24 / delete</title>
    <desc>Created with Sketch.</desc>
    <g id="icn-/-24x24-/-delete" stroke="none" stroke-width="1" fill="none" fill-rule="evenodd">
        <path d="M10,4 C10,2.8954305 10.8954305,2 12,2 C13.1045695,2 14,2.8954305 14,4 L19,4 C19.5522847,4 20,4.44771525 20,5 C20,5.55228475 19.5522847,6 19,6 L5,6 C4.44771525,6 4,5.55228475 4,5 C4,4.44771525 4.44771525,4 5,4 L10,4 Z M10,12 C10.5522847,12 11,12.4477153 11,13 L11,17 C11,17.5522847 10.5522847,18 10,18 C9.44771525,18 9,17.5522847 9,17 L9,13 C9,12.4477153 9.44771525,12 10,12 Z M14,12 C14.5522847,12 15,12.4477153 15,13 L15,17 C15,17.5522847 14.5522847,18 14,18 C13.4477153,18 13,17.5522847 13,17 L13,13 C13,12.4477153 13.4477153,12 14,12 Z M7,10 L7,20 L17,20 L17,10 L7,10 Z M19,8 L19,20 C19,21.1045695 18.1045695,22 17,22 L7,22 C5.8954305,22 5,21.1045695 5,20 L5,8 L19,8 Z" id="Shape" fill="#1B3855"></path>
    </g>
</svg>