<?xml version="1.0" encoding="UTF-8"?>
<svg width="24px" height="24px" viewBox="0 0 24 24" version="1.1" xmlns="http://www.w3.org/2000/svg" xmlns:xlink="http://www.w3.org/1999/xlink">
    <!-- Generator: Sketch 53 (72520) - https://sketchapp.com -->
    <title>icn / 24x24 / exit</title>
    <desc>Created with Sketch.</desc>
    <g id="icn-/-24x24-/-exit" stroke="none" stroke-width="1" fill="none" fill-rule="evenodd">
        <path d="M17.5857864,13 L8,13 C7.44771525,13 7,12.5522847 7,12 C7,11.4477153 7.44771525,11 8,11 L17.5857864,11 L17.2928932,10.7071068 C16.9023689,10.3165825 16.9023689,9.68341751 17.2928932,9.29289322 C17.6834175,8.90236893 18.3165825,8.90236893 18.7071068,9.29289322 L20.7071068,11.2928932 C21.0976311,11.6834175 21.0976311,12.3165825 20.7071068,12.7071068 L18.7071068,14.7071068 C18.3165825,15.0976311 17.6834175,15.0976311 17.2928932,14.7071068 C16.9023689,14.3165825 16.9023689,13.6834175 17.2928932,13.2928932 L17.5857864,13 Z M16,18 C16,17.4477153 16.4477153,17 17,17 C17.5522847,17 18,17.4477153 18,18 C18,19.6568542 16.6568542,21 15,21 L6,21 C4.34314575,21 3,19.6568542 3,18 L3,6 C3,4.34314575 4.34314575,3 6,3 L15,3 C16.6568542,3 18,4.34314575 18,6 C18,6.55228475 17.5522847,7 17,7 C16.4477153,7 16,6.55228475 16,6 C16,5.44771525 15.5522847,5 15,5 L6,5 C5.44771525,5 5,5.44771525 5,6 L5,18 C5,18.5522847 5.44771525,19 6,19 L15,19 C15.5522847,19 16,18.5522847 16,18 Z" id="Combined-Shape" fill="#1B3855" fill-rule="nonzero"></path>
    </g>
</svg>