<?xml version="1.0" encoding="UTF-8"?>
<svg width="24px" height="24px" viewBox="0 0 24 24" version="1.1" xmlns="http://www.w3.org/2000/svg" xmlns:xlink="http://www.w3.org/1999/xlink">
    <!-- Generator: Sketch 53 (72520) - https://sketchapp.com -->
    <title>icn / 24x24 / filter</title>
    <desc>Created with Sketch.</desc>
    <g id="icn-/-24x24-/-filter" stroke="none" stroke-width="1" fill="none" fill-rule="evenodd">
        <path d="M9,11.5146179 L2.41876181,6.81373347 C2.15596568,6.62602196 2,6.3229511 2,6 L2,3 C2,2.44771525 2.44771525,2 3,2 L22,2 C22.5522847,2 23,2.44771525 23,3 L23,6 C23,6.3229511 22.8440343,6.62602196 22.5812382,6.81373347 L16,11.5146179 L16,19 C16,19.4089046 15.7510491,19.7766133 15.3713907,19.9284767 L10.3713907,21.9284767 C9.71452628,22.1912224 9,21.7074646 9,21 L9,11.5146179 Z M4,4 L4,5.4853821 L10.5812382,10.1862665 C10.8440343,10.373978 11,10.6770489 11,11 L11,19.522967 L14,18.322967 L14,11 C14,10.6770489 14.1559657,10.373978 14.4187618,10.1862665 L21,5.4853821 L21,4 L4,4 Z" id="Path-5" fill="#1B3855" fill-rule="nonzero"></path>
    </g>
</svg>