<?xml version="1.0" encoding="UTF-8"?>
<svg width="24px" height="24px" viewBox="0 0 24 24" version="1.1" xmlns="http://www.w3.org/2000/svg" xmlns:xlink="http://www.w3.org/1999/xlink">
    <!-- Generator: Sketch 53 (72520) - https://sketchapp.com -->
    <title>icn / 24x24 / mailing</title>
    <desc>Created with Sketch.</desc>
    <defs>
        <path d="M18.5857864,17 L18.2928932,16.7071068 C17.9023689,16.3165825 17.9023689,15.6834175 18.2928932,15.2928932 C18.6834175,14.9023689 19.3165825,14.9023689 19.7071068,15.2928932 L21.7071068,17.2928932 C22.0976311,17.6834175 22.0976311,18.3165825 21.7071068,18.7071068 L19.7071068,20.7071068 C19.3165825,21.0976311 18.6834175,21.0976311 18.2928932,20.7071068 C17.9023689,20.3165825 17.9023689,19.6834175 18.2928932,19.2928932 L18.5857864,19 L11,19 C10.4477153,19 10,18.5522847 10,18 C10,17.4477153 10.4477153,17 11,17 L18.5857864,17 L18.5857864,17 Z M20,6.17924764 L12.5299989,10.8479983 C12.2057287,11.0506672 11.7942713,11.0506672 11.4700011,10.8479983 L4,6.17924764 L4,16 C4,16.5522847 4.44771525,17 5,17 L6,17 C6.55228475,17 7,17.4477153 7,18 C7,18.5522847 6.55228475,19 6,19 L5,19 C3.34314575,19 2,17.6568542 2,16 L2,6 C2,4.34314575 3.34314575,3 5,3 L19,3 C20.6568542,3 22,4.34314575 22,6 L22,12 C22,12.5522847 21.5522847,13 21,13 C20.4477153,13 20,12.5522847 20,12 L20,6.17924764 Z M18.1132038,5 L5.88679623,5 L12,8.82075236 L18.1132038,5 Z" id="path-1"></path>
    </defs>
    <g id="icn-/-24x24-/-mailing" stroke="none" stroke-width="1" fill="none" fill-rule="evenodd">
        <mask id="mask-2" fill="white">
            <use xlink:href="#path-1"></use>
        </mask>
        <use id="Shape" fill="#FFFFFF" fill-rule="nonzero" xlink:href="#path-1"></use>
        <g id="color-/-white" mask="url(#mask-2)" fill="#FFFFFF">
            <rect id="Rectangle" x="0" y="0" width="24" height="24"></rect>
        </g>
    </g>
</svg>