<?xml version="1.0" encoding="UTF-8"?>
<svg width="24px" height="24px" viewBox="0 0 24 24" version="1.1" xmlns="http://www.w3.org/2000/svg" xmlns:xlink="http://www.w3.org/1999/xlink">
    <!-- Generator: Sketch 53 (72520) - https://sketchapp.com -->
    <title>icn / 24x24 / view</title>
    <desc>Created with Sketch.</desc>
    <g id="icn-/-24x24-/-view" stroke="none" stroke-width="1" fill="none" fill-rule="evenodd">
        <path d="M6.69222817,14.8003611 C6.2502573,13.9643873 6,13.011419 6,12 C6,10.988581 6.2502573,10.0356127 6.69222817,9.19963889 C5.84624001,9.94145298 5.02115574,10.8735626 4.21624382,12 C5.02115574,13.1264374 5.84624001,14.058547 6.69222817,14.8003611 L6.69222817,14.8003611 Z M17.3077718,9.19963889 C17.7497427,10.0356127 18,10.988581 18,12 C18,13.011419 17.7497427,13.9643873 17.3077718,14.8003611 C18.15376,14.058547 18.9788443,13.1264374 19.7837562,12 C18.9788443,10.8735626 18.15376,9.94145298 17.3077718,9.19963889 L17.3077718,9.19963889 Z M12,19 C8.31033079,19 5.02597525,16.8104296 2.16983431,12.5575168 C1.94338856,12.2203296 1.94338856,11.7796704 2.16983431,11.4424832 C5.02597525,7.18957036 8.31033079,5 12,5 C15.6896692,5 18.9740248,7.18957036 21.8301657,11.4424832 C22.0566114,11.7796704 22.0566114,12.2203296 21.8301657,12.5575168 C18.9740248,16.8104296 15.6896692,19 12,19 Z M12,16 C14.209139,16 16,14.209139 16,12 C16,9.790861 14.209139,8 12,8 C9.790861,8 8,9.790861 8,12 C8,14.209139 9.790861,16 12,16 Z M12,14 C10.8954305,14 10,13.1045695 10,12 C10,10.8954305 10.8954305,10 12,10 C13.1045695,10 14,10.8954305 14,12 C14,13.1045695 13.1045695,14 12,14 Z" id="Shape" fill="#1B3855" fill-rule="nonzero"></path>
    </g>
</svg>