<?xml version="1.0" encoding="UTF-8"?><!DOCTYPE svg PUBLIC "-//W3C//DTD SVG 1.1//EN" "http://www.w3.org/Graphics/SVG/1.1/DTD/svg11.dtd"><svg xmlns="http://www.w3.org/2000/svg" xmlns:xlink="http://www.w3.org/1999/xlink"><defs><path d="M18.586 17l-.293-.293a1 1 0 0 1 1.414-1.414l2 2a1 1 0 0 1 0 1.414l-2 2a1 1 0 0 1-1.414-1.414l.293-.293H11a1 1 0 0 1 0-2h7.586zM20 6.18l-7.47 4.668a1 1 0 0 1-1.06 0L4 6.179V16a1 1 0 0 0 1 1h1a1 1 0 0 1 0 2H5a3 3 0 0 1-3-3V6a3 3 0 0 1 3-3h14a3 3 0 0 1 3 3v6a1 1 0 0 1-2 0V6.18zM18.113 5H5.887L12 8.82 18.113 5z" id="a"/></defs><symbol id="case"><path d="M14 11h6V8H4v3h6a1 1 0 0 1 1-1h2a1 1 0 0 1 1 1zm0 2a1 1 0 0 1-1 1h-2a1 1 0 0 1-1-1H4v6h16v-6h-6zM7 6V5a2 2 0 0 1 2-2h6a2 2 0 0 1 2 2v1h3a2 2 0 0 1 2 2v11a2 2 0 0 1-2 2H4a2 2 0 0 1-2-2V8a2 2 0 0 1 2-2h3zm2 0h6V5H9v1z" fill="#1B3855" fill-rule="evenodd"/></symbol><symbol id="copy"><path d="M20 12h-3a1 1 0 0 1-1-1V7a.98.98 0 0 1 .486-.858l.02-.011a1 1 0 0 1 1.202.162L22 10.586v.344a.993.993 0 0 1 0 .126V20a2 2 0 0 1-2 2h-9a2 2 0 0 1-2-2 1 1 0 0 1 2 0h9v-8zM9 4H4v12h9V8h-3a1 1 0 0 1-1-1V4zm.944-2a.993.993 0 0 1 .126 0h.344L15 6.586v.344a.993.993 0 0 1 0 .126V16a2 2 0 0 1-2 2H4a2 2 0 0 1-2-2V4a2 2 0 0 1 2-2h5.944z" fill="#1B3855"/></symbol><symbol id="delete"><path d="M10 4a2 2 0 1 1 4 0h5a1 1 0 0 1 0 2H5a1 1 0 1 1 0-2h5zm0 8a1 1 0 0 1 1 1v4a1 1 0 0 1-2 0v-4a1 1 0 0 1 1-1zm4 0a1 1 0 0 1 1 1v4a1 1 0 0 1-2 0v-4a1 1 0 0 1 1-1zm-7-2v10h10V10H7zm12-2v12a2 2 0 0 1-2 2H7a2 2 0 0 1-2-2V8h14z" fill="#1B3855" fill-rule="evenodd"/></symbol><symbol id="edit"><path d="M11.464 9.707L5 16.172V19h2.828l6.465-6.464-2.829-2.829zm0-2.828l5.657 5.657L8.657 21H3v-5.657l8.464-8.464zm1.415-1.415l1.293-1.292a4 4 0 1 1 5.656 5.656l-1.292 1.293-5.657-5.657z" fill="#1B3855"/></symbol><symbol id="exit"><path d="M17.586 13H8a1 1 0 0 1 0-2h9.586l-.293-.293a1 1 0 1 1 1.414-1.414l2 2a1 1 0 0 1 0 1.414l-2 2a1 1 0 0 1-1.414-1.414l.293-.293zM16 18a1 1 0 0 1 2 0 3 3 0 0 1-3 3H6a3 3 0 0 1-3-3V6a3 3 0 0 1 3-3h9a3 3 0 0 1 3 3 1 1 0 0 1-2 0 1 1 0 0 0-1-1H6a1 1 0 0 0-1 1v12a1 1 0 0 0 1 1h9a1 1 0 0 0 1-1z" fill="#1B3855"/></symbol><symbol id="filter"><path d="M9 11.515L2.419 6.814A1 1 0 0 1 2 6V3a1 1 0 0 1 1-1h19a1 1 0 0 1 1 1v3a1 1 0 0 1-.419.814L16 11.514V19a1 1 0 0 1-.629.928l-5 2A1 1 0 0 1 9 21v-9.485zM4 4v1.485l6.581 4.701A1 1 0 0 1 11 11v8.523l3-1.2V11a1 1 0 0 1 .419-.814L21 5.486V4H4z" fill="#1B3855"/></symbol><symbol id="mailing"><g fill="none" fill-rule="evenodd"><mask id="b" fill="#fff"><use xlink:href="#a"/></mask><use fill="#FFF" fill-rule="nonzero" xlink:href="#a"/><g mask="url(#b)" fill="#FFF"><path d="M0 0h24v24H0z"/></g></g></symbol><symbol id="view"><path d="M6.692 14.8A5.974 5.974 0 0 1 6 12c0-1.011.25-1.964.692-2.8-.846.741-1.67 1.674-2.476 2.8.805 1.126 1.63 2.059 2.476 2.8zm10.616-5.6c.442.836.692 1.789.692 2.8s-.25 1.964-.692 2.8c.846-.741 1.67-1.674 2.476-2.8-.805-1.126-1.63-2.059-2.476-2.8zM12 19c-3.69 0-6.974-2.19-9.83-6.442a1 1 0 0 1 0-1.116C5.026 7.19 8.31 5 12 5c3.69 0 6.974 2.19 9.83 6.442a1 1 0 0 1 0 1.116C18.974 16.81 15.69 19 12 19zm0-3a4 4 0 1 0 0-8 4 4 0 0 0 0 8zm0-2a2 2 0 1 1 0-4 2 2 0 0 1 0 4z" fill="#1B3855"/></symbol></svg>